<?xml version="1.0" encoding="utf-8"?>
<!-- Generator: Adobe Illustrator 26.0.3, SVG Export Plug-In . SVG Version: 6.00 Build 0)  -->
<svg version="1.1" id="Layer_1" xmlns="http://www.w3.org/2000/svg" xmlns:xlink="http://www.w3.org/1999/xlink" x="0px" y="0px"
	 viewBox="0 0 1080 580" style="enable-background:new 0 0 1080 580;" xml:space="preserve">
<g>
	<path d="M4,578.99h275.55v-67.75H84.27v-96.21h178.19v-63.76H84.27v-84.83h195.27v-67.75H39.58C20.01,198.69,4,214.7,4,234.27
		V578.99z"/>
	<path d="M426.42,198.69h-44.69c-19.57,0-35.58,16.01-35.58,35.58v344.72h247.08v-70.02H426.42V198.69z"/>
	<path d="M650.73,578.99h75.72V349.27c0-20.91-16.95-37.86-37.86-37.86h0c-20.91,0-37.86,16.95-37.86,37.86V578.99z"/>
	<path d="M1076,266.44v-67.75H836.04c-19.57,0-35.58,16.01-35.58,35.58v344.72h80.27V415.03h178.19v-63.76H880.73v-84.83H1076z"/>
	<path d="M767.65,198.69l-79.07,79.07l-79.07-79.07h38.88c0-97.05-145.74-175.73-323.06-175.73c-175.94,0-319.08,38.53-321.3,133.93
		C6.24,49.3,167.1,1.01,365.2,1.01c199.49,0,363.18,88.5,363.18,197.68H767.65z"/>
</g>
</svg>
